<svg width="35" height="35" viewBox="0 0 35 35" fill="none" xmlns="http://www.w3.org/2000/svg">
<path d="M17.5 0C10.423 0 4.66547 5.75757 4.66547 12.8345C4.66547 15.0715 5.25001 17.2743 6.35593 19.2048C7.33128 20.9075 8.69347 22.3729 10.3174 23.4719V35H24.6827V23.4719C26.3066 22.3729 27.6689 20.9075 28.6442 19.2048C29.7501 17.2743 30.3346 15.0715 30.3346 12.8345C30.3346 5.75757 24.577 0 17.5 0V0ZM12.3681 26.7903H22.632V28.8444H12.3681V26.7903ZM13.3952 13.8616C12.8289 13.8616 12.3681 13.4008 12.3681 12.8345C12.3681 12.2683 12.8289 11.8076 13.3952 11.8076C13.9615 11.8076 14.4221 12.2683 14.4221 12.8345C14.4221 13.4008 13.9615 13.8616 13.3952 13.8616ZM18.527 15.9124V24.7395H16.4729V15.9124H18.527ZM20.5778 12.8345C20.5778 12.2683 21.0385 11.8076 21.6048 11.8076C22.1711 11.8076 22.6318 12.2683 22.6318 12.8345C22.6318 13.4008 22.1711 13.8616 21.6048 13.8616C21.0385 13.8616 20.5778 13.4008 20.5778 12.8345ZM12.3681 32.9492V30.8952H22.632V32.9492H12.3681ZM26.8646 18.1855C25.9634 19.7588 24.6692 21.0911 23.1219 22.0384L22.6319 22.3385V24.7395H20.5778V15.9124H21.6048C23.3019 15.9124 24.6826 14.5316 24.6826 12.8345C24.6826 11.1375 23.3019 9.7568 21.6048 9.7568C19.9077 9.7568 18.527 11.1375 18.527 12.8345C18.527 13.1946 18.5897 13.5402 18.7039 13.8616H16.2961C16.4102 13.5401 16.4729 13.1946 16.4729 12.8345C16.4729 11.1375 15.0923 9.7568 13.3952 9.7568C11.6981 9.7568 10.3174 11.1375 10.3174 12.8345C10.3174 14.5316 11.6981 15.9124 13.3952 15.9124H14.4221V24.7395H12.3681V22.3385L11.8781 22.0384C10.3308 21.0911 9.03657 19.7587 8.13532 18.1855C7.20693 16.5648 6.71618 14.7144 6.71618 12.8345C6.71625 6.88837 11.5538 2.05078 17.5 2.05078C23.4462 2.05078 28.2838 6.88837 28.2838 12.8345C28.2838 14.7144 27.793 16.5648 26.8646 18.1855Z" fill="#3D4B69"/>
</svg>
