<svg width="25" height="25" viewBox="0 0 25 25" fill="none" xmlns="http://www.w3.org/2000/svg">
<g clip-path="url(#clip0)">
<path d="M22.9954 9.38348L21.3876 7.775V4.58765C21.3876 3.51058 20.5114 2.63432 19.4343 2.63432H16.2504L13.7612 0.143668C13.6696 0.0521052 13.5454 0.000586 13.4159 0.000537167L11.5967 0C11.5967 0 11.5966 0 11.5966 0C11.4671 0 11.343 0.0514215 11.2514 0.142935L8.75845 2.63436H5.56563C4.48856 2.63436 3.61229 3.51063 3.61229 4.5877V7.78013L2.00558 9.38314C1.53019 9.85828 1.26834 10.4901 1.26834 11.1623V22.4846C1.26834 23.1622 1.5381 23.7775 1.97525 24.2302C1.98468 24.2415 1.99449 24.2526 2.00509 24.2633C2.01564 24.2738 2.02667 24.2835 2.03791 24.2929C2.49064 24.7301 3.10609 25 3.78375 25H10.3025C10.5722 25 10.7908 24.7813 10.7908 24.5117C10.7908 24.242 10.5722 24.0233 10.3025 24.0233H3.7837C3.53724 24.0233 3.30435 23.9648 3.09759 23.8613L8.85353 18.1054L10.7275 19.9782C11.2025 20.453 11.8339 20.7144 12.5055 20.7144H12.5063C13.1782 20.7142 13.8098 20.4523 14.2847 19.9771L16.1508 18.1098L21.9023 23.8613C21.6956 23.9647 21.4627 24.0233 21.2162 24.0233H14.6975C14.4278 24.0233 14.2092 24.242 14.2092 24.5117C14.2092 24.7813 14.4278 25 14.6975 25H21.2163C21.8939 25 22.5093 24.7302 22.9621 24.293C22.9734 24.2836 22.9844 24.2738 22.995 24.2633C23.0056 24.2526 23.0154 24.2415 23.0249 24.2302C23.462 23.7775 23.7317 23.1621 23.7317 22.4846V11.1616C23.7317 10.49 23.4702 9.85858 22.9954 9.38348ZM21.3877 9.1565L22.3046 10.0739C22.3893 10.1586 22.4625 10.2517 22.5243 10.3509L21.3877 11.4882V9.1565ZM11.7987 0.976716L13.2134 0.977205L14.8695 2.63436H10.14L11.7987 0.976716ZM2.69569 10.0743L3.61234 9.15972V11.4866L2.47604 10.3511C2.53781 10.2519 2.61106 10.1589 2.69569 10.0743ZM2.40699 23.1707C2.30356 22.964 2.24501 22.7311 2.24501 22.4846V11.5009L8.16273 17.415L2.40699 23.1707ZM13.594 19.2867C13.3034 19.5774 12.9171 19.7376 12.5061 19.7377C12.5059 19.7377 12.5058 19.7377 12.5056 19.7377C12.0948 19.7377 11.7085 19.5778 11.4179 19.2873L4.58901 12.4627V4.58765C4.58901 4.04912 5.02714 3.61098 5.56568 3.61098H19.4344C19.9729 3.61098 20.411 4.04912 20.411 4.58765V7.91486C20.4064 7.95369 20.4064 7.99285 20.411 8.03167V12.4655L13.594 19.2867ZM22.755 22.4846C22.755 22.7311 22.6965 22.964 22.593 23.1707L16.8414 17.419L22.755 11.5017V22.4846Z" fill="white"/>
<path d="M12.5001 24.0234C12.3716 24.0234 12.2456 24.0757 12.1548 24.1665C12.064 24.2574 12.0117 24.3833 12.0117 24.5118C12.0117 24.6402 12.064 24.7662 12.1548 24.857C12.2456 24.9483 12.3716 25.0001 12.5001 25.0001C12.6285 25.0001 12.7545 24.9483 12.8453 24.857C12.9361 24.7662 12.9884 24.6402 12.9884 24.5118C12.9884 24.3833 12.9361 24.2574 12.8453 24.1665C12.7545 24.0757 12.6285 24.0234 12.5001 24.0234Z" fill="white"/>
<path d="M12.5 5.65918C9.95765 5.65918 7.88931 7.72747 7.88931 10.2698C7.88931 12.847 9.98597 14.9436 12.5631 14.9436H15.5311C15.8009 14.9436 16.0195 14.7249 16.0195 14.4553C16.0195 14.1856 15.8009 13.967 15.5311 13.967H12.5631C10.5245 13.967 8.86598 12.3084 8.86598 10.2698C8.86598 8.26605 10.4962 6.63585 12.5 6.63585C14.5038 6.63585 16.134 8.26605 16.134 10.2698V11.2706C16.134 11.6552 15.8211 11.9681 15.4365 11.9681C15.0519 11.9681 14.739 11.6552 14.739 11.2706V10.1402C14.739 8.80322 13.6513 7.7155 12.3142 7.7155C10.9083 7.7155 9.76461 8.85928 9.76461 10.2652C9.76461 11.6711 10.9084 12.8148 12.3142 12.8148H13.0911C13.3608 12.8148 13.5794 12.5962 13.5794 12.3265C13.5794 12.0568 13.3608 11.8382 13.0911 11.8382H12.3142C11.4469 11.8382 10.7413 11.1325 10.7413 10.2651C10.7413 9.39781 11.4469 8.69217 12.3142 8.69217C13.1127 8.69217 13.7623 9.3418 13.7623 10.1402V11.2706C13.7623 12.1937 14.5133 12.9447 15.4365 12.9447C16.3597 12.9447 17.1107 12.1937 17.1107 11.2706V10.2698C17.1107 7.72747 15.0423 5.65918 12.5 5.65918Z" fill="white"/>
</g>
<defs>
<clipPath id="clip0">
<rect width="25" height="25" fill="white"/>
</clipPath>
</defs>
</svg>
