<svg width="20" height="20" viewBox="0 0 20 20" fill="none" xmlns="http://www.w3.org/2000/svg">
<path d="M16.3767 14.4521H3.62283C3.42798 14.4521 3.24594 14.3558 3.13623 14.1949C1.45349 11.7272 1.3244 6.98035 1.31464 6.2757C1.31403 6.24808 1.31372 6.22015 1.31372 6.19238C1.31372 5.86752 1.57678 5.604 1.90164 5.60339H1.90286C2.22711 5.60339 2.49063 5.86569 2.49185 6.19009C2.49185 6.19406 2.492 6.22885 2.49338 6.2905C2.54526 7.96637 3.9248 9.31357 5.61304 9.31357C7.33408 9.31357 8.73422 7.91342 8.73422 6.19238C8.73422 5.86707 8.99805 5.60339 9.32321 5.60339H10.6762C11.0015 5.60339 11.2652 5.86707 11.2652 6.19238C11.2652 7.91342 12.6655 9.31357 14.3865 9.31357C16.0763 9.31357 17.4568 7.96393 17.5063 6.28592C17.5074 6.22702 17.5077 6.19406 17.5077 6.19025C17.5089 5.86569 17.7723 5.60339 18.0967 5.60339H18.0978C18.4226 5.604 18.6857 5.86752 18.6857 6.19238C18.6857 6.22031 18.6854 6.24808 18.6849 6.27585C18.675 6.98035 18.5459 11.7274 16.8633 14.195C16.7536 14.3558 16.5714 14.4521 16.3767 14.4521Z" fill="#FFF780"/>
<path d="M18.0978 5.60339C18.0975 5.60339 18.0972 5.60339 18.0968 5.60339C17.7725 5.60339 17.509 5.86569 17.5078 6.19009C17.5078 6.19406 17.5076 6.22702 17.5064 6.28592C17.4568 7.96378 16.0764 9.31357 14.3866 9.31357C12.6656 9.31357 11.2654 7.91342 11.2654 6.19238C11.2654 5.86707 11.0016 5.60339 10.6764 5.60339H10V14.452H16.3768C16.5717 14.452 16.7537 14.3557 16.8634 14.1949C18.5461 11.7272 18.6752 6.98019 18.685 6.2757C18.6856 6.24808 18.6859 6.22015 18.6859 6.19238C18.6858 5.86752 18.4227 5.604 18.0978 5.60339V5.60339Z" fill="#FFC02E"/>
<path d="M10 3.59375C8.95065 3.59375 8.09692 4.44748 8.09692 5.49683C8.09692 6.54617 8.95065 7.39975 10 7.39975C11.0493 7.39975 11.9031 6.54617 11.9031 5.49683C11.9031 4.44748 11.0493 3.59375 10 3.59375Z" fill="#FFC02E"/>
<path d="M10 3.59375V7.3999C11.0493 7.39975 11.9029 6.54617 11.9029 5.49683C11.9029 4.44748 11.0492 3.5939 10 3.59375V3.59375Z" fill="#FFA73B"/>
<path d="M1.90308 5.06238C0.853729 5.06238 0 5.91611 0 6.96545C0 8.0148 0.853729 8.86853 1.90308 8.86853C2.95242 8.86853 3.806 8.0148 3.806 6.96545C3.806 5.91611 2.95242 5.06238 1.90308 5.06238Z" fill="#FFC02E"/>
<path d="M18.0965 5.06238C17.0472 5.06238 16.1936 5.91611 16.1936 6.96545C16.1936 8.01465 17.0472 8.86838 18.0965 8.86838C19.1459 8.86838 19.9996 8.01465 19.9996 6.96545C19.9996 5.91611 19.1459 5.06238 18.0965 5.06238Z" fill="#FFA73B"/>
<path d="M16.3768 16.3845H3.62292C3.29761 16.3845 3.03394 16.1208 3.03394 15.7955V14.0391H16.9658V15.7955C16.9658 16.1208 16.7021 16.3845 16.3768 16.3845V16.3845Z" fill="#FFC02E"/>
<path d="M10 16.3845H16.3768C16.7021 16.3845 16.9658 16.1208 16.9658 15.7955V14.0391H10V16.3845Z" fill="#FFA73B"/>
</svg>
