<svg width="17" height="17" viewBox="0 0 17 17" fill="none" xmlns="http://www.w3.org/2000/svg">
<g clip-path="url(#clip0)">
<path d="M8.49136 15.3179L8.42045 15.1356L7.59208 9.43631L5.0672 4.62866H0.847535L0.0174361 5.52794L0.0203415 5.53036H0.000488281C0.00602227 5.63827 0.0464896 5.74376 0.119123 5.82885L8.25374 15.3743C8.30943 15.44 8.41319 15.4825 8.49136 15.4891L8.51003 15.3598L8.49136 15.3179Z" fill="#01D0FB"/>
<path d="M17.0006 5.5279L16.2743 4.55945H10.8441L8.45752 14.659L8.49211 15.4891C8.55471 15.4749 8.68441 15.4275 8.72972 15.3742L16.8706 5.82881C16.9419 5.74517 16.9821 5.64183 16.9887 5.53585L17.0006 5.5279Z" fill="#36D0FF"/>
<path d="M4.68652 5.53027H12.3317L8.49183 15.489L4.68652 5.53027Z" fill="#99E6FC"/>
<path d="M16.9482 5.30515C16.9796 5.37743 16.9931 5.45456 16.989 5.53031H12.3318L15.1334 1.6828L15.2413 1.54895C15.3011 1.58146 15.3499 1.63369 15.3782 1.69871L16.9482 5.30515Z" fill="#37C2FF"/>
<path d="M15.2411 1.54891L15.1332 1.68276L12.3316 5.53027L9.6521 1.54545V1.51086H15.0917C15.1449 1.51086 15.1961 1.52435 15.2411 1.54891V1.54891Z" fill="#DFF6FD"/>
<path d="M9.65224 1.51086V1.54545L12.3317 5.53027H4.68652L7.36601 1.54545V1.51086H9.65224Z" fill="#C8EFFE"/>
<path d="M7.36582 1.54545L4.68633 5.53027L1.88475 1.68276L1.77856 1.53473C1.81557 1.51917 1.85604 1.51086 1.89789 1.51086H7.36582V1.54545Z" fill="#99E6FC"/>
<path d="M1.88486 1.68282L4.68644 5.53033H0.000882771C-0.00292185 5.45458 0.0102214 5.37745 0.0416959 5.30517L1.61162 1.69873C1.64482 1.62299 1.70535 1.56523 1.77868 1.53479L1.88486 1.68282Z" fill="#62DBFB"/>
<path d="M3.58712 13.6012V15.0432C3.58712 15.1452 3.50131 15.2263 3.39941 15.221C2.61691 15.1805 2.11708 14.8698 1.90001 14.2889C1.86767 14.2024 1.90831 14.1053 1.99202 14.0662L3.33401 13.44C3.45192 13.385 3.58712 13.4711 3.58712 13.6012V13.6012Z" fill="#FEDF30"/>
<path d="M2.73869 11.8791L1.38304 12.3705C1.28713 12.4053 1.18164 12.3522 1.15186 12.2546C0.923304 11.5051 1.04512 10.9294 1.51727 10.5273C1.58762 10.4674 1.69267 10.4726 1.75793 10.5379L2.804 11.5862C2.89593 11.6784 2.86106 11.8348 2.73869 11.8791Z" fill="#FEDF30"/>
<path d="M13.3613 13.6012V15.0432C13.3613 15.1452 13.4471 15.2263 13.549 15.221C14.3315 15.1805 14.8314 14.8698 15.0484 14.2889C15.0808 14.2024 15.0401 14.1053 14.9564 14.0662L13.6144 13.44C13.4965 13.385 13.3613 13.4711 13.3613 13.6012Z" fill="#FEDF30"/>
<path d="M14.2099 11.8791L15.5655 12.3705C15.6614 12.4053 15.7669 12.3522 15.7967 12.2546C16.0253 11.5051 15.9034 10.9294 15.4313 10.5273C15.3609 10.4674 15.2559 10.4726 15.1906 10.5379L14.1446 11.5862C14.0526 11.6784 14.0875 11.8348 14.2099 11.8791Z" fill="#FEDF30"/>
</g>
<defs>
<clipPath id="clip0">
<rect width="17" height="17" fill="white"/>
</clipPath>
</defs>
</svg>
