<svg width="30" height="30" viewBox="0 0 30 30" fill="none" xmlns="http://www.w3.org/2000/svg">
<path d="M24.6896 7.2846C24.6892 7.27654 24.6883 7.26848 24.6869 7.26047C24.6557 7.21584 24.6172 7.17742 24.5851 7.13368C24.3516 6.81571 24.1045 6.50969 23.8437 6.21553C23.7723 6.13515 23.7008 6.05566 23.6276 5.97706C23.3591 5.68951 23.0774 5.41529 22.7827 5.15453C22.7282 5.10628 22.6773 5.05631 22.6228 5.00895C21.8964 4.38668 21.101 3.84967 20.2523 3.40852C20.2183 3.39067 20.1826 3.3755 20.1478 3.3576C19.7698 3.16555 19.3823 2.99291 18.9866 2.84047C18.8973 2.80834 18.816 2.77793 18.7312 2.75114C18.3793 2.62434 18.022 2.5133 17.6594 2.418C17.5522 2.38943 17.445 2.35997 17.336 2.33496C16.9787 2.25191 16.6215 2.18848 16.2562 2.13667C16.1454 2.12061 16.0365 2.09915 15.9248 2.08576C14.9839 1.97141 14.0326 1.97141 13.0916 2.08576C12.98 2.09915 12.871 2.12061 12.7602 2.13667C12.3949 2.18848 12.0341 2.25191 11.6803 2.33496C11.5714 2.35997 11.4642 2.38943 11.357 2.418C10.992 2.51325 10.6347 2.62429 10.2852 2.75114C10.1959 2.78149 10.1146 2.8119 10.0297 2.84047C9.63415 2.99291 9.24656 3.1655 8.8686 3.3576C8.83375 3.37545 8.79805 3.39062 8.76409 3.40852C7.91255 3.8492 7.1145 4.38616 6.38553 5.00895C6.33105 5.05625 6.28013 5.10628 6.22565 5.15453C5.92792 5.4165 5.64625 5.69071 5.3807 5.97706C5.30749 6.05566 5.236 6.13515 5.16456 6.21553C4.90315 6.50906 4.65603 6.81509 4.42324 7.13362C4.39111 7.17737 4.3527 7.21578 4.3214 7.26042C4.31732 7.26822 4.31371 7.27628 4.31067 7.28455C1.22994 11.6017 1.22994 17.3983 4.31067 21.7154C4.31371 21.7237 4.31726 21.7317 4.3214 21.7395C4.35264 21.7842 4.39106 21.8226 4.42324 21.8663C4.65608 22.1843 4.90315 22.4903 5.16456 22.7845C5.236 22.8648 5.30749 22.9443 5.3807 23.0229C5.64986 23.3105 5.93147 23.5847 6.22565 23.8455C6.28013 23.8937 6.33105 23.9437 6.38553 23.9911C7.11193 24.6133 7.90732 25.1503 8.75603 25.5915C8.78999 25.6093 8.82569 25.6245 8.86054 25.6424C9.2385 25.8345 9.62604 26.0071 10.0217 26.1595C10.111 26.1917 10.1923 26.2221 10.2771 26.2489C10.629 26.3757 10.9863 26.4867 11.3489 26.582C11.4561 26.6106 11.5633 26.64 11.6723 26.665C12.0296 26.7481 12.3868 26.8115 12.7521 26.8633C12.8629 26.8794 12.9718 26.9008 13.0835 26.9142C14.0245 27.0286 14.9757 27.0286 15.9167 26.9142C16.0283 26.9008 16.1373 26.8794 16.2481 26.8633C16.6134 26.8115 16.9742 26.7481 17.328 26.665C17.4369 26.64 17.5441 26.6106 17.6513 26.582C18.0169 26.4868 18.3742 26.3757 18.7231 26.2489C18.8124 26.2185 18.8937 26.1881 18.9786 26.1595C19.3742 26.0071 19.7617 25.8345 20.1397 25.6424C20.1746 25.6246 20.2103 25.6094 20.2442 25.5915C21.0929 25.1503 21.8883 24.6133 22.6147 23.9911C22.6692 23.9437 22.7201 23.8937 22.7746 23.8455C23.0723 23.5841 23.354 23.3099 23.6195 23.0229C23.6928 22.9443 23.7642 22.8648 23.8357 22.7845C24.0971 22.4903 24.3442 22.1843 24.577 21.8663C24.6091 21.8226 24.6475 21.7842 24.6788 21.7395C24.6829 21.7317 24.6865 21.7237 24.6896 21.7154C27.7703 17.3984 27.7703 11.6017 24.6896 7.2846ZM23.6705 8.97441C24.5247 10.3811 25.0405 11.9669 25.1772 13.607H19.8271C19.7616 12.5428 19.5941 11.4874 19.3269 10.4552C20.8382 10.1722 22.301 9.67349 23.6705 8.97441ZM16.7769 4.02921C16.8269 4.04083 16.8751 4.0569 16.9252 4.06851C17.2449 4.14356 17.562 4.22927 17.8719 4.33645C17.9193 4.35251 17.9657 4.3713 18.0122 4.38825C18.3195 4.49543 18.6222 4.61422 18.9188 4.74551C18.9706 4.76964 19.0215 4.79643 19.0733 4.82056C19.3574 4.95573 19.6348 5.10189 19.9058 5.25909L20.0844 5.36715C20.3416 5.52435 20.5917 5.69254 20.8347 5.87177C20.8972 5.9173 20.9597 5.9611 21.0213 6.01108C21.2595 6.18968 21.4876 6.38111 21.7055 6.58536C21.7627 6.63716 21.8216 6.68808 21.8779 6.74167C22.1065 6.95868 22.3245 7.1882 22.5353 7.42579C22.5621 7.45703 22.5906 7.4856 22.6174 7.51511C21.408 8.09143 20.1268 8.50296 18.808 8.73866C18.1971 7.05926 17.39 5.45784 16.4036 3.96767C16.5277 3.98996 16.6545 4.00247 16.7769 4.02921ZM10.9641 13.6069C11.0345 12.6406 11.1991 11.6834 11.4553 10.749C12.4673 10.8692 13.4856 10.9288 14.5047 10.9276C15.5247 10.9273 16.5439 10.8662 17.5567 10.7445C17.8125 11.6804 17.9761 12.6391 18.0452 13.6069H10.9641ZM18.0452 15.3932C17.9748 16.3595 17.8102 17.3167 17.554 18.2511C16.542 18.1309 15.5237 18.0713 14.5046 18.0725C13.4846 18.0714 12.4655 18.131 11.4526 18.2511C11.1971 17.3166 11.0335 16.3595 10.964 15.3932H18.0452ZM14.5046 4.36507C15.5211 5.80558 16.3571 7.36529 16.9939 9.00926C16.1671 9.09707 15.3362 9.14118 14.5046 9.14145C13.674 9.14045 12.844 9.09608 12.018 9.00837C12.6556 7.3655 13.4906 5.80631 14.5046 4.36507ZM6.47497 7.42484C6.68488 7.18726 6.9037 6.95774 7.13235 6.74073C7.18861 6.68714 7.24759 6.63622 7.30474 6.58441C7.52506 6.38378 7.75314 6.19235 7.98891 6.01014C8.05056 5.96278 8.11304 5.92081 8.17558 5.87083C8.41852 5.69223 8.66863 5.52398 8.92585 5.36621L9.10447 5.25815C9.37541 5.09979 9.65289 4.95358 9.93691 4.81961C9.98872 4.79549 10.0396 4.7687 10.0915 4.74457C10.388 4.61061 10.6908 4.49182 10.998 4.38731C11.0445 4.37036 11.0874 4.35157 11.1382 4.3355C11.4482 4.23189 11.7635 4.14617 12.085 4.06757C12.1351 4.05595 12.1833 4.03989 12.2342 4.02916C12.3565 4.00237 12.4834 3.98986 12.6075 3.96751C11.6207 5.45794 10.8134 7.05968 10.2022 8.73939C8.88341 8.50369 7.60215 8.09216 6.3928 7.51585C6.4196 7.48466 6.44817 7.45609 6.47497 7.42484ZM5.33884 8.97441C6.70796 9.67344 8.17046 10.1722 9.68146 10.4552C9.41461 11.4874 9.2474 12.5428 9.18219 13.607H3.83207C3.96887 11.9669 4.48468 10.3811 5.33884 8.97441ZM5.33884 20.0257C4.48463 18.619 3.96882 17.0332 3.83207 15.3932H9.18219C9.24771 16.4574 9.41518 17.5128 9.68235 18.545C8.17108 18.8279 6.70828 19.3266 5.33884 20.0257ZM12.2324 24.9709C12.1824 24.9593 12.1342 24.9432 12.0841 24.9316C11.7644 24.8566 11.4473 24.7708 11.1374 24.6637C11.09 24.6476 11.0436 24.6288 10.9971 24.6119C10.6898 24.5047 10.3871 24.3859 10.0905 24.2546C10.0387 24.2305 9.98778 24.2037 9.93597 24.1795C9.65195 24.0444 9.37447 23.8982 9.10353 23.741L8.92491 23.633C8.66769 23.4758 8.41758 23.3076 8.17464 23.1283C8.1121 23.0828 8.04961 23.039 7.98796 22.989C7.74979 22.8104 7.52172 22.619 7.30379 22.4147C7.24664 22.3629 7.18766 22.312 7.1314 22.2584C6.90275 22.0414 6.68483 21.8119 6.47403 21.5743C6.44723 21.5431 6.41866 21.5145 6.39186 21.485C7.60126 20.9087 8.88247 20.4971 10.2012 20.2614C10.8122 21.9408 11.6193 23.5423 12.6057 25.0324C12.4816 25.0102 12.3548 24.9977 12.2324 24.9709ZM14.5046 24.6351C13.4882 23.1946 12.6522 21.6349 12.0153 19.9909C13.6695 19.8129 15.3379 19.8129 16.9921 19.9909L16.9912 19.9918C16.3537 21.6346 15.5187 23.1938 14.5046 24.6351ZM22.5343 21.5753C22.3244 21.8128 22.1056 22.0424 21.877 22.2594C21.8207 22.313 21.7617 22.3639 21.7046 22.4157C21.4842 22.617 21.2562 22.8084 21.0204 22.99C20.9587 23.0373 20.8963 23.0837 20.8337 23.1293C20.5908 23.3079 20.3407 23.4761 20.0834 23.6339L19.9048 23.742C19.6345 23.8997 19.357 24.0459 19.0724 24.1805C19.0206 24.2046 18.9697 24.2314 18.9178 24.2555C18.6213 24.3895 18.3185 24.5083 18.0113 24.6128C17.9648 24.6297 17.9219 24.6485 17.871 24.6646C17.5611 24.7682 17.2458 24.8539 16.9243 24.9325C16.8742 24.9441 16.826 24.9602 16.7751 24.9709C16.6528 24.9977 16.5259 25.0102 16.4018 25.0326C17.3882 23.5424 18.1953 21.941 18.8062 20.2616C20.1249 20.4973 21.4062 20.9088 22.6156 21.4851C22.5897 21.5154 22.5611 21.544 22.5343 21.5753ZM23.6705 20.0257C22.3013 19.3267 20.8388 18.828 19.3278 18.545C19.5947 17.5127 19.7619 16.4573 19.8271 15.3932H25.1772C25.0404 17.0332 24.5246 18.619 23.6705 20.0257Z" fill="white"/>
</svg>
