<svg width="35" height="35" viewBox="0 0 35 35" fill="none" xmlns="http://www.w3.org/2000/svg">
<path d="M33.9725 0.000957168C26.6333 0.00772571 19.4425 3.09685 14.2422 8.47729L12.3931 10.3264L10.4272 8.36052L4.62415 9.99851L0 14.6226L4.04827 18.671L4.0482 18.6711L4.25755 18.8803L2.35327 22.8088L3.60845 24.064L0.538338 27.1342L1.98865 28.5845L5.05877 25.5144L6.54354 26.9993L0.0419103 33.5008L1.49222 34.9511L7.99385 28.4496L9.47863 29.9343L6.40837 33.0046L7.85869 34.4549L10.9289 31.3846L12.1841 32.6399L16.1128 30.7356L20.3704 34.9932L24.9941 30.3697L26.6378 24.5714L24.6666 22.6004L26.5157 20.7513C29.0801 18.2795 31.2056 15.2316 32.6624 11.9366C35.4291 5.67942 34.9385 0.655728 35 0L33.9725 0.000957168ZM5.69611 11.8271L9.8271 10.6611L10.9427 11.7767L5.49852 17.2207L2.90056 14.6226L5.69611 11.8271ZM12.6026 30.1578L4.83541 22.3904L5.79271 20.4156L14.5776 29.2005L12.6026 30.1578ZM24.3361 25.1705L23.1664 29.2969L20.3704 32.0927L17.7723 29.4948L23.2162 24.0509L24.3361 25.1705ZM25.0858 19.2808L23.2164 21.1503L23.2162 21.1501L16.3222 28.0441L6.94897 18.6711C7.64004 17.9801 13.1766 12.4436 13.8434 11.7767C14.0592 11.5609 13.1103 12.51 15.7114 9.90853C20.2795 5.17937 26.5027 2.35969 32.9243 2.07576C32.6406 8.50198 29.8189 14.7221 25.0858 19.2808Z" fill="#3D4B69"/>
<path d="M25.1253 16.4799C26.9501 14.6551 26.9515 11.6874 25.1286 9.86449C24.247 8.98287 23.0734 8.49731 21.8239 8.49731C19.2447 8.49731 17.1479 10.5757 17.1486 13.1707C17.1489 14.4207 17.6347 15.5947 18.5166 16.4766C20.3222 18.282 23.2926 18.3127 25.1253 16.4799ZM21.8239 10.5484C22.5255 10.5484 23.1841 10.8206 23.6783 11.3148C24.7015 12.3381 24.7 14.0045 23.675 15.0296C23.184 15.5205 22.527 15.7908 21.8247 15.7908C20.3571 15.7908 19.2 14.6141 19.1996 13.1701C19.1994 12.4686 20.3873 10.5484 21.8239 10.5484Z" fill="#3D4B69"/>
</svg>
