<svg width="47" height="50" viewBox="0 0 47 50" fill="none" xmlns="http://www.w3.org/2000/svg">
<g filter="url(#filter0_d)">
<path d="M15.0625 40.5781H31.9375C37.2536 40.5781 41.5781 36.2536 41.5781 30.9375V14.0625C41.5781 8.74636 37.2536 4.42188 31.9375 4.42188H15.0625C9.74636 4.42188 5.42188 8.74636 5.42188 14.0625V30.9375C5.42188 36.2536 9.74636 40.5781 15.0625 40.5781ZM7.82812 14.0625C7.82812 10.0742 11.0742 6.82812 15.0625 6.82812H31.9375C35.9258 6.82812 39.1719 10.0742 39.1719 14.0625V30.9375C39.1719 34.9258 35.9258 38.1719 31.9375 38.1719H15.0625C11.0742 38.1719 7.82812 34.9258 7.82812 30.9375V14.0625Z" fill="url(#paint0_linear)" stroke="url(#paint1_linear)"/>
<path d="M23.5 31.6406C18.46 31.6406 14.3594 27.54 14.3594 22.5C14.3594 17.46 18.46 13.3594 23.5 13.3594C28.54 13.3594 32.6406 17.46 32.6406 22.5C32.6406 27.54 28.54 31.6406 23.5 31.6406ZM23.5 16.1719C20.0111 16.1719 17.1719 19.0111 17.1719 22.5C17.1719 25.9896 20.0111 28.8281 23.5 28.8281C26.9896 28.8281 29.8281 25.9896 29.8281 22.5C29.8281 19.0111 26.9896 16.1719 23.5 16.1719Z" fill="url(#paint2_linear)"/>
<path d="M33.3438 10.5469C32.7843 10.5469 32.2478 10.7691 31.8522 11.1647C31.4566 11.5603 31.2344 12.0968 31.2344 12.6562C31.2344 13.2157 31.4566 13.7522 31.8522 14.1478C32.2478 14.5434 32.7843 14.7656 33.3438 14.7656C33.9032 14.7656 34.4397 14.5434 34.8353 14.1478C35.2309 13.7522 35.4531 13.2157 35.4531 12.6562C35.4531 12.0968 35.2309 11.5603 34.8353 11.1647C34.4397 10.7691 33.9032 10.5469 33.3438 10.5469Z" fill="url(#paint3_linear)"/>
</g>
<defs>
<filter id="filter0_d" x="-3" y="0" width="53" height="53" filterUnits="userSpaceOnUse" color-interpolation-filters="sRGB">
<feFlood flood-opacity="0" result="BackgroundImageFix"/>
<feColorMatrix in="SourceAlpha" type="matrix" values="0 0 0 0 0 0 0 0 0 0 0 0 0 0 0 0 0 0 127 0"/>
<feOffset dy="4"/>
<feGaussianBlur stdDeviation="2"/>
<feColorMatrix type="matrix" values="0 0 0 0 0 0 0 0 0 0 0 0 0 0 0 0 0 0 0.25 0"/>
<feBlend mode="normal" in2="BackgroundImageFix" result="effect1_dropShadow"/>
<feBlend mode="normal" in="SourceGraphic" in2="effect1_dropShadow" result="shape"/>
</filter>
<linearGradient id="paint0_linear" x1="23.5" y1="4.92187" x2="23.5" y2="40.0781" gradientUnits="userSpaceOnUse">
<stop stop-color="#F8E11B"/>
<stop offset="0.567708" stop-color="#F30001"/>
<stop offset="1" stop-color="#C50097"/>
</linearGradient>
<linearGradient id="paint1_linear" x1="23.5" y1="4.92187" x2="23.5" y2="40.0781" gradientUnits="userSpaceOnUse">
<stop stop-color="#F8E219"/>
<stop offset="0.546875" stop-color="#F41804"/>
<stop offset="1" stop-color="#C03D74"/>
</linearGradient>
<linearGradient id="paint2_linear" x1="23.5" y1="13.3594" x2="23.5" y2="31.6406" gradientUnits="userSpaceOnUse">
<stop stop-color="#F89F1B"/>
<stop offset="0.567708" stop-color="#F30001"/>
<stop offset="1" stop-color="#C50097"/>
</linearGradient>
<linearGradient id="paint3_linear" x1="33.3438" y1="10.5469" x2="33.3438" y2="14.7656" gradientUnits="userSpaceOnUse">
<stop stop-color="#F89F1B"/>
<stop offset="0.567708" stop-color="#F30001"/>
<stop offset="1" stop-color="#C50097"/>
</linearGradient>
</defs>
</svg>
