<svg width="33" height="40" viewBox="0 0 33 40" fill="none" xmlns="http://www.w3.org/2000/svg">
<path d="M19.3195 7.03125H13.6805C11.9251 8.97344 9.72132 10.4695 7.2439 11.4047V18.5742C7.2439 24.6375 10.8602 30.075 16.5 32.5641C22.1398 30.075 25.7561 24.6375 25.7561 18.5742V11.4055C23.2779 10.4703 21.0749 8.97422 19.3195 7.03125ZM22.9881 17.1117L15.4754 24.4032C15.2396 24.6321 14.9305 24.7469 14.6222 24.7469C14.3131 24.7469 14.0041 24.632 13.7682 24.4032L10.0119 20.7579C9.54102 20.3001 9.54102 19.5579 10.0119 19.1001C10.4835 18.643 11.2482 18.643 11.7198 19.1001L14.6222 21.9173L21.281 15.4548C21.7518 14.997 22.5165 14.997 22.9881 15.4548C23.459 15.9125 23.459 16.6539 22.9881 17.1117ZM31.7854 5.46875C28.3051 5.46875 25.1355 3.6125 23.5113 0.625C23.3027 0.240625 22.8915 0 22.4439 0H10.5559C10.1084 0 9.69709 0.240625 9.48782 0.625C7.86446 3.6125 4.69485 5.46875 1.20732 5.46875C0.540878 5.46875 0 5.99375 0 6.64062V18.5742C0 23.3719 1.54456 27.9531 4.46627 31.8227C7.38798 35.6922 11.4228 38.5007 16.1362 39.9453C16.2545 39.982 16.3777 40 16.5 40C16.6223 40 16.7455 39.982 16.8638 39.9453C21.5772 38.5008 25.612 35.6923 28.5337 31.8227C31.4554 27.953 33 23.3719 33 18.5742V6.64062C33 5.99375 32.4519 5.46875 31.7854 5.46875ZM28.1707 18.5211C28.1707 25.6977 23.7721 32.1156 16.9644 34.8711C16.8155 34.9313 16.6578 34.9609 16.5 34.9609C16.3422 34.9609 16.1837 34.9313 16.0356 34.8711C9.22793 32.1156 4.82927 25.6976 4.82927 18.5211V10.5273C4.82927 10.0211 5.1641 9.57187 5.6599 9.41406C8.22183 8.59609 10.4787 7.09219 12.1859 5.06484C12.4152 4.79219 12.7589 4.63438 13.1211 4.63438H19.8789C20.2491 4.63438 20.6854 4.9125 20.8141 5.06484C22.5212 7.09219 24.7781 8.59609 27.34 9.41406C27.6934 9.52656 27.9638 9.78672 28.091 10.1109C28.0927 10.1141 28.0934 10.118 28.095 10.1211C28.1257 10.2016 28.1473 10.2859 28.1595 10.3727C28.1603 10.3813 28.1618 10.3906 28.1627 10.3992C28.1675 10.4414 28.1707 10.4836 28.1707 10.5273V18.5211Z" fill="url(#paint0_linear)"/>
<defs>
<linearGradient id="paint0_linear" x1="16.5" y1="0" x2="16.5" y2="40" gradientUnits="userSpaceOnUse">
<stop stop-color="#0AF0FF"/>
<stop offset="1" stop-color="#6AC1FF"/>
</linearGradient>
</defs>
</svg>
