<svg width="34" height="34" viewBox="0 0 34 34" fill="none" xmlns="http://www.w3.org/2000/svg">
<g clip-path="url(#clip0)">
<path d="M5.227 30.947L10.0286 30.947L10.0286 24.9697H12.021V22.9773H10.0286V20.9849H10.8212L23.0414 26.1973C23.6492 26.4566 24.042 27.051 24.042 27.7117V28.9546H26.0344C26.0344 27.7427 26.0344 20.9421 26.0344 19.6082L30.0193 17.6158V14.3919L26.0344 12.3995C26.0344 11.1815 26.0344 3.29817 26.0344 3.0531L24.042 3.0531V4.29604C24.042 4.95673 23.6492 5.55114 23.0414 5.81042L10.8212 11.0228L0 11.0228L0 20.985H3.23458L5.227 30.947ZM26.0344 14.6271L28.0268 15.6233V16.3843L26.0344 17.3805V14.6271ZM12.021 12.6771C24.5657 7.32268 23.8256 7.65016 24.042 7.54051L24.042 24.4671C23.8263 24.3578 24.5685 24.6861 12.021 19.3305L12.021 12.6771ZM8.03613 28.9546L6.8604 28.9546L5.26645 20.9849L8.03613 20.9849L8.03613 28.9546ZM1.99243 13.0152L10.0286 13.0152L10.0286 18.9925H1.99243L1.99243 13.0152Z" fill="#7254AE"/>
<path d="M29.0921 11.1129L33.1311 9.11819L34.0137 10.9054L29.9747 12.9001L29.0921 11.1129Z" fill="#7254AE"/>
<path d="M29.1002 20.8848L29.9828 19.0976L34.0218 21.0923L33.1391 22.8795L29.1002 20.8848Z" fill="#7254AE"/>
</g>
<defs>
<clipPath id="clip0">
<rect width="34" height="34" fill="white"/>
</clipPath>
</defs>
</svg>
