<svg width="40" height="40" viewBox="0 0 40 40" fill="none" xmlns="http://www.w3.org/2000/svg">
<g clip-path="url(#clip0)">
<path d="M37.7269 17.0417C37.1113 16.5878 36.3426 16.0208 36.2417 15.6452C36.1321 15.233 36.5234 14.3304 36.84 13.6052C37.3826 12.3599 37.9426 11.0695 37.32 9.99643C36.6922 8.9095 35.2817 8.74948 33.9199 8.59646C33.1426 8.50948 32.1756 8.40171 31.8869 8.11124C31.5964 7.82078 31.4886 6.85385 31.4017 6.07818C31.2486 4.71644 31.0903 3.30774 30.0017 2.67815C29.0556 2.12861 27.6539 2.60861 26.393 3.15815C25.6973 3.46076 24.9703 3.74943 24.3513 3.75644C23.9756 3.6556 23.4104 2.88685 22.9547 2.27119C22.1722 1.20693 21.2834 0 20 0C18.7182 0 17.8278 1.20693 17.0434 2.27128C16.5878 2.88864 16.0225 3.65739 15.4903 3.77388C15.0208 3.77388 14.3008 3.46084 13.6052 3.15823C12.3408 2.60869 10.9374 2.13391 9.99823 2.67823C8.90779 3.30782 8.74956 4.71652 8.59646 6.07997C8.50948 6.85736 8.40171 7.82258 8.11296 8.11304C7.82249 8.40171 6.85557 8.51127 6.07989 8.59654C4.71644 8.74956 3.30595 8.90959 2.67815 9.99652C2.05728 11.0696 2.61725 12.3583 3.15815 13.6052C3.4747 14.3305 3.86771 15.2348 3.75644 15.6469C3.6556 16.0226 2.88864 16.5896 2.27119 17.0435C1.20693 17.8261 0 18.7165 0 20C0 21.2834 1.20693 22.1739 2.27307 22.9582C2.88872 23.4121 3.65739 23.9791 3.75831 24.3548C3.86788 24.7669 3.47657 25.6695 3.16003 26.3948C2.61742 27.64 2.05744 28.9304 2.68003 30.0035C3.30782 31.0904 4.71831 31.2504 6.08005 31.4035C6.85744 31.4904 7.82437 31.5982 8.11312 31.8887C8.40358 32.1791 8.51135 33.1461 8.59834 33.9217C8.75135 35.2835 8.90967 36.6922 9.99831 37.3218C10.9392 37.8696 12.3409 37.3913 13.6052 36.8418C14.3009 36.5392 15.0156 36.2313 15.6469 36.2435C16.0226 36.3443 16.5878 37.1131 17.0435 37.7287C17.8278 38.7931 18.7166 40 20 40C21.2818 40 22.1722 38.7931 22.9566 37.7287C23.4122 37.1114 23.9775 36.3426 24.5097 36.2244C24.9792 36.2244 25.6992 36.5374 26.3948 36.8401C27.6627 37.3896 29.0626 37.8662 30.0018 37.3218C31.0922 36.6922 31.2504 35.2835 31.4035 33.92C31.4905 33.1426 31.5983 32.1774 31.887 31.887C32.1775 31.5965 33.1444 31.4887 33.9201 31.4017C35.2836 31.2487 36.694 31.0904 37.3218 30.0018C37.9427 28.9287 37.3827 27.64 36.8419 26.3931C36.5253 25.6678 36.134 24.7635 36.2436 24.3531C36.3444 23.9774 37.1114 23.4104 37.7288 22.9565C38.7932 22.1739 40.0001 21.2834 40.0001 20C40.0001 18.7165 38.793 17.8261 37.7269 17.0417ZM15.6522 23.4782C15.6522 23.8522 15.4122 24.1843 15.0574 24.3026C14.967 24.3339 14.8748 24.3478 14.7826 24.3478C14.5148 24.3478 14.2539 24.2226 14.0869 24L10.4348 19.1304V23.4782C10.4348 23.9582 10.0452 24.3478 9.56518 24.3478C9.08518 24.3478 8.69559 23.9582 8.69559 23.4782V16.5218C8.69559 16.1478 8.93559 15.8157 9.29037 15.6974C9.64344 15.5774 10.0365 15.7009 10.2608 16L13.913 20.8696V16.5218C13.913 16.0418 14.3026 15.6522 14.7826 15.6522C15.2626 15.6522 15.6522 16.0418 15.6522 16.5218V23.4782ZM21.7391 19.1304C22.2191 19.1304 22.6087 19.52 22.6087 20C22.6087 20.48 22.2191 20.8696 21.7391 20.8696H19.1304V22.6087H21.7391C22.2191 22.6087 22.6087 22.9982 22.6087 23.4782C22.6087 23.9582 22.2191 24.3478 21.7391 24.3478H18.2609C17.7809 24.3478 17.3913 23.9582 17.3913 23.4782V16.5218C17.3913 16.0418 17.7809 15.6522 18.2609 15.6522H21.7391C22.2191 15.6522 22.6087 16.0418 22.6087 16.5218C22.6087 17.0018 22.2191 17.3913 21.7391 17.3913H19.1304V19.1304H21.7391ZM33.0173 16.7322L31.2782 23.6887C31.1843 24.0643 30.8539 24.3321 30.4678 24.346C30.4557 24.346 30.4435 24.346 30.433 24.346C30.0591 24.346 29.727 24.1078 29.607 23.7513L28.6956 21.0104L27.7826 23.7531C27.6609 24.1183 27.36 24.3635 26.9234 24.3461C26.5373 24.3322 26.2069 24.0627 26.113 23.6887L24.3739 16.7322C24.2591 16.2662 24.5409 15.7948 25.0069 15.6783C25.4644 15.56 25.9444 15.8436 26.0609 16.3113L27.0747 20.3705L27.8695 17.9861C28.1078 17.2766 29.2834 17.2766 29.5199 17.9861L30.3147 20.3705L31.3285 16.3113C31.4433 15.8435 31.9129 15.5618 32.3825 15.6783C32.8522 15.7947 33.1339 16.2678 33.0173 16.7322Z" fill="url(#paint0_linear)"/>
</g>
<defs>
<linearGradient id="paint0_linear" x1="20" y1="0" x2="20" y2="40" gradientUnits="userSpaceOnUse">
<stop stop-color="#FAFF00"/>
<stop offset="1" stop-color="#FF8A00"/>
</linearGradient>
<clipPath id="clip0">
<rect width="40" height="40" fill="white"/>
</clipPath>
</defs>
</svg>
