<svg width="30" height="31" viewBox="0 0 30 31" fill="none" xmlns="http://www.w3.org/2000/svg">
<path d="M4.61539 11.6408C3.97962 11.6408 3.46155 11.1182 3.46155 10.4768V8.14886C3.46155 7.5075 3.97962 6.98486 4.61539 6.98486H16.1539C16.7896 6.98486 17.3077 7.5075 17.3077 8.14886V10.4768C17.3077 11.1182 16.7896 11.6408 16.1539 11.6408H4.61539Z" fill="#3D4B69"/>
<path d="M23.0769 26.7728H5.76919C5.76919 26.7728 1.15381 26.8286 1.15381 22.0842C1.15381 17.3398 1.15381 3.49292 1.15381 3.49292H18.4615" stroke="#3D4B69" stroke-width="2" stroke-miterlimit="10" stroke-linecap="round" stroke-linejoin="round"/>
<path d="M24.2307 26.7728H5.76919C5.76919 26.7728 1.15381 26.8286 1.15381 22.0842C1.15381 17.3398 1.15381 3.49292 1.15381 3.49292H19.6153" stroke="#3D4B69" stroke-width="2" stroke-miterlimit="10" stroke-linecap="round" stroke-linejoin="round"/>
<path d="M28.8462 22.1168C28.8462 26.7751 24.2308 26.7728 24.2308 26.7728C24.2308 26.7728 19.6154 26.7553 19.6154 22.0842C19.6154 17.4131 19.6154 3.49292 19.6154 3.49292" stroke="#3D4B69" stroke-width="2" stroke-miterlimit="10" stroke-linecap="round" stroke-linejoin="round"/>
<path d="M11.5385 22.1167H16.1539M24.2308 20.9527V9.31282C24.2308 9.31282 24.285 6.98484 26.5385 6.98484C28.792 6.98484 28.8462 9.34541 28.8462 9.34541V22.1167L24.2308 20.9527ZM26.5385 6.95923H19.6535H26.5385ZM4.61542 15.1328H8.07696H4.61542ZM4.61542 18.6248H8.07696H4.61542ZM11.5385 15.1328H16.1539H11.5385ZM11.5385 18.6248H16.1539H11.5385ZM5.19234 22.1167H8.07696H5.19234Z" stroke="#3D4B69" stroke-width="2" stroke-miterlimit="10" stroke-linecap="round" stroke-linejoin="round"/>
</svg>
