<svg width="17" height="17" viewBox="0 0 17 17" fill="none" xmlns="http://www.w3.org/2000/svg">
<path d="M15.2609 9.61425L15.7932 12.6329L12.9129 13.6813L11.3803 16.336L8.51074 15.2915V0.00878906L10.848 1.97021H13.9132L14.4455 4.98887L16.7936 6.95961L15.2609 9.61425Z" fill="#FF9F22"/>
<path d="M8.51069 0.0088308V15.2915L8.4999 15.2876L5.61909 16.336L4.08646 13.6814L1.20614 12.633L1.73845 9.61429L0.205811 6.95965L2.55382 4.98891L3.08612 1.97025H6.15139L8.4999 0L8.51069 0.0088308Z" fill="#FFDA44"/>
<path d="M11.6398 7.31379L8.51074 9.66033V7.82107L10.7567 6.13635L11.6398 7.31379Z" fill="white"/>
<path d="M8.51081 7.82123V9.66049L7.16313 10.6711L5.24292 8.43055L6.36002 7.4729L7.38341 8.66653L8.51081 7.82123Z" fill="#FFFBC9"/>
</svg>
