<svg width="30" height="30" viewBox="0 0 30 30" fill="none" xmlns="http://www.w3.org/2000/svg">
<circle cx="15" cy="15" r="15" fill="#6184D8"/>
<g clip-path="url(#clip0)">
<path d="M5.92571 16.3731L1.99998 12.4473L5.3017 9.14559L9.44581 7.97571L11.8845 10.4144L5.92571 16.3731Z" fill="#C3DAFD"/>
<path d="M16.5484 26.9958L12.6225 23.0699L18.5811 17.1115L21.0238 19.5539L19.8499 23.6944L16.5484 26.9958Z" fill="#A1B8D8"/>
<path d="M2.02588 25.9314L7.18695 20.7703L8.2209 21.8043L3.05983 26.9654L2.02588 25.9314Z" fill="#ECC443"/>
<path d="M2.54893 26.4521L7.71001 21.2911L8.22189 21.803L3.06082 26.964L2.54893 26.4521Z" fill="#E39069"/>
<path d="M6.57355 25.5762L9.28419 22.8656L10.3182 23.8996L7.60754 26.6102L6.57355 25.5762Z" fill="#E39069"/>
<path d="M2.38164 21.3831L5.09215 18.6726L6.1261 19.7065L3.41559 22.417L2.38164 21.3831Z" fill="#ECC443"/>
<path d="M14.2073 22.1803L6.82343 14.7963L4.89553 15.3429L3.6545 18.2681L10.6753 25.2891L13.6607 24.1081L14.2073 22.1803Z" fill="#2B4CA1"/>
<path d="M10.3212 18.6873C9.89727 19.1111 7.20643 21.8021 7.19725 21.8112C7.51717 22.1311 10.4914 25.1053 10.6753 25.2892L13.6607 24.1082L14.0108 22.3769L10.3212 18.6873Z" fill="#213B82"/>
<path d="M25.3303 10.5314C27.3027 6.07054 26.957 2.46507 27 2.0071C26.7303 2.06077 18.713 1.29792 12.1752 8.06187L4.89473 15.3422L13.66 24.1073L20.9399 16.8274C22.7717 15.0618 24.2898 12.8849 25.3303 10.5314Z" fill="#E4F3FF"/>
<path d="M25.3304 10.5314C27.3027 6.07052 26.9571 2.46505 27 2.00708C26.9997 2.00713 26.9989 2.00713 26.9986 2.00723L9.27924 19.7266L13.6601 24.1072L20.94 16.8273C22.7717 15.0618 24.2899 12.8849 25.3304 10.5314Z" fill="#C3DAFD"/>
<path d="M15.2297 13.7752C13.153 11.6985 14.5968 8.07985 17.5891 8.07794C20.559 8.07575 22.0394 11.6866 19.9484 13.7776C18.6482 15.0777 16.5314 15.0767 15.2297 13.7752Z" fill="#84D9F3"/>
<path d="M19.9523 9.05603L15.2314 13.7769C16.5332 15.0768 18.6487 15.0772 19.9484 13.7777C21.3554 12.3707 21.1453 10.2755 19.9523 9.05603Z" fill="#77B0FB"/>
</g>
<defs>
<clipPath id="clip0">
<rect width="25" height="25" fill="white" transform="translate(2 2)"/>
</clipPath>
</defs>
</svg>
