<svg width="40" height="40" viewBox="0 0 40 40" fill="none" xmlns="http://www.w3.org/2000/svg">
<path d="M19.2138 11.0345H35.8621C37.3856 11.0345 38.6207 12.2696 38.6207 13.7931V33.1035H4.82758V18.0138L19.2138 11.0345Z" fill="#35495E"/>
<path d="M38.6207 13.7931V16.5517H7.84143L19.2138 11.0345H35.8621C37.3857 11.0345 38.6207 12.2696 38.6207 13.7931Z" fill="#3B97D3"/>
<path d="M35.8621 40H7.5862C5.30089 40 3.44827 38.1474 3.44827 35.8621V33.7931C3.44827 33.4122 3.75704 33.1035 4.13793 33.1035H39.3103C39.6912 33.1035 40 33.4122 40 33.7931V35.8621C40 38.1474 38.1474 40 35.8621 40Z" fill="#95A5A5"/>
<path d="M16.5517 33.1035H26.8966V34.4828C26.8966 35.6254 25.9702 36.5517 24.8276 36.5517H18.6207C17.478 36.5517 16.5517 35.6254 16.5517 34.4828V33.1035Z" fill="#7F8C8D"/>
<path d="M13.1034 36.5516H11.0345C10.6536 36.5516 10.3448 36.2429 10.3448 35.862C10.3448 35.4811 10.6536 35.1723 11.0345 35.1723H13.1034C13.4843 35.1723 13.7931 35.4811 13.7931 35.862C13.7931 36.2429 13.4843 36.5516 13.1034 36.5516Z" fill="#7F8C8D"/>
<path d="M6.89653 36.5516C7.27742 36.5516 7.58619 36.2429 7.58619 35.862C7.58619 35.4811 7.27742 35.1723 6.89653 35.1723C6.51565 35.1723 6.20688 35.4811 6.20688 35.862C6.20688 36.2429 6.51565 36.5516 6.89653 36.5516Z" fill="#955BA5"/>
<path d="M8.96553 36.5516C9.34642 36.5516 9.65519 36.2429 9.65519 35.862C9.65519 35.4811 9.34642 35.1723 8.96553 35.1723C8.58465 35.1723 8.27588 35.4811 8.27588 35.862C8.27588 36.2429 8.58465 36.5516 8.96553 36.5516Z" fill="#F0C419"/>
<path d="M9.65517 19.3103C14.9876 19.3103 19.3103 14.9876 19.3103 9.65517C19.3103 4.32277 14.9876 0 9.65517 0C4.32277 0 0 4.32277 0 9.65517C0 14.9876 4.32277 19.3103 9.65517 19.3103Z" fill="#F0C419"/>
<path d="M10.3448 9.02068V4.88275C11.531 5.11033 12.4138 5.91723 12.4138 6.87585C12.4138 7.25674 12.7226 7.56551 13.1034 7.56551C13.4843 7.56551 13.7931 7.25674 13.7931 6.87585C13.7931 5.1724 12.2966 3.75171 10.3448 3.48275V2.75861C10.3448 2.37772 10.0361 2.06895 9.65517 2.06895C9.27429 2.06895 8.96552 2.37772 8.96552 2.75861V3.50344C7.01379 3.7724 5.51724 5.19309 5.51724 6.89654C5.51724 8.59999 7.01379 10.0207 8.96552 10.2896V14.4276C7.77931 14.2 6.89655 13.3931 6.89655 12.4345C6.89655 12.0536 6.58778 11.7448 6.2069 11.7448C5.82601 11.7448 5.51724 12.0536 5.51724 12.4345C5.51724 14.1379 7.01379 15.5586 8.96552 15.8276V16.5517C8.96552 16.9326 9.27429 17.2414 9.65517 17.2414C10.0361 17.2414 10.3448 16.9326 10.3448 16.5517V15.8069C12.2966 15.5379 13.7931 14.1172 13.7931 12.4138C13.7931 10.7103 12.2966 9.28964 10.3448 9.02068ZM6.89655 6.89654C6.89655 5.93792 7.77931 5.13102 8.96552 4.90344V8.88965C7.77931 8.66206 6.89655 7.85516 6.89655 6.89654ZM10.3448 14.4069V10.4207C11.531 10.6483 12.4138 11.4552 12.4138 12.4138C12.4138 13.3724 11.531 14.1793 10.3448 14.4069Z" fill="#E57E25"/>
<path d="M34.4827 20.6897C34.4521 22.7022 33.4167 24.5659 31.7241 25.6552V28.2759C31.7241 29.0376 31.1066 29.6552 30.3448 29.6552H24.8276C24.0658 29.6552 23.4483 29.0376 23.4483 28.2759V25.6552C21.7557 24.5659 20.7203 22.7022 20.6896 20.6897C20.6896 17.2414 23.7793 14.4828 27.5862 14.4828C31.3931 14.4828 34.4827 17.2414 34.4827 20.6897Z" fill="#ECF0F1"/>
<path d="M26.2069 20.6896H24.138C23.7571 20.6896 23.4483 20.3809 23.4483 20C23.4483 19.6191 23.7571 19.3103 24.138 19.3103H26.2069C26.5878 19.3103 26.8966 19.6191 26.8966 20C26.8966 20.3809 26.5878 20.6896 26.2069 20.6896Z" fill="#3F5C6C"/>
<path d="M31.0345 20.6896H28.9655C28.5846 20.6896 28.2758 20.3809 28.2758 20C28.2758 19.6191 28.5846 19.3103 28.9655 19.3103H31.0345C31.4154 19.3103 31.7241 19.6191 31.7241 20C31.7241 20.3809 31.4154 20.6896 31.0345 20.6896Z" fill="#3F5C6C"/>
<path d="M27.5862 24.1378C27.2053 24.1378 26.8965 23.8291 26.8965 23.4482V22.0689C26.8965 21.688 27.2053 21.3792 27.5862 21.3792C27.9671 21.3792 28.2759 21.688 28.2759 22.0689V23.4482C28.2759 23.8291 27.9671 24.1378 27.5862 24.1378Z" fill="#3F5C6C"/>
<path d="M26.8966 27.5862V29.6552H25.5173V27.5862C25.5173 27.2053 25.826 26.8965 26.2069 26.8965C26.5878 26.8965 26.8966 27.2053 26.8966 27.5862Z" fill="#95A5A5"/>
<path d="M29.6552 27.5862V29.6552H28.2758V27.5862C28.2758 27.2053 28.5846 26.8965 28.9655 26.8965C29.3464 26.8965 29.6552 27.2053 29.6552 27.5862Z" fill="#95A5A5"/>
<path d="M20.6896 28.9655H20C19.6191 28.9655 19.3103 28.6568 19.3103 28.2759C19.3103 27.895 19.6191 27.5862 20 27.5862H20.6896C21.0705 27.5862 21.3793 27.895 21.3793 28.2759C21.3793 28.6568 21.0705 28.9655 20.6896 28.9655Z" fill="#FF5364"/>
<path d="M17.2414 28.9655H16.5517C16.1708 28.9655 15.8621 28.6568 15.8621 28.2759C15.8621 27.895 16.1708 27.5862 16.5517 27.5862H17.2414C17.6223 27.5862 17.931 27.895 17.931 28.2759C17.931 28.6568 17.6223 28.9655 17.2414 28.9655Z" fill="#FF5364"/>
<path d="M13.7931 28.9655H13.1034C12.7226 28.9655 12.4138 28.6568 12.4138 28.2759C12.4138 27.895 12.7226 27.5862 13.1034 27.5862H13.7931C14.174 27.5862 14.4828 27.895 14.4828 28.2759C14.4828 28.6568 14.174 28.9655 13.7931 28.9655Z" fill="#FF5364"/>
<path d="M9.65517 22.7586C9.27429 22.7586 8.96552 22.4499 8.96552 22.069V21.3793C8.96552 20.9984 9.27429 20.6897 9.65517 20.6897C10.0361 20.6897 10.3448 20.9984 10.3448 21.3793V22.069C10.3448 22.4499 10.0361 22.7586 9.65517 22.7586Z" fill="#FF5364"/>
<path d="M9.65517 26.2069C9.27429 26.2069 8.96552 25.8981 8.96552 25.5173V24.8276C8.96552 24.4467 9.27429 24.1379 9.65517 24.1379C10.0361 24.1379 10.3448 24.4467 10.3448 24.8276V25.5173C10.3448 25.8981 10.0361 26.2069 9.65517 26.2069Z" fill="#FF5364"/>
<path d="M10.3448 28.9655C9.58305 28.9655 8.96552 28.348 8.96552 27.5862C8.96552 27.2053 9.27428 26.8965 9.65517 26.8965C10.0361 26.8965 10.3448 27.2053 10.3448 27.5862C10.7257 27.5862 11.0345 27.895 11.0345 28.2759C11.0345 28.6567 10.7257 28.9655 10.3448 28.9655Z" fill="#FF5364"/>
</svg>
