<svg width="20" height="20" viewBox="0 0 20 20" fill="none" xmlns="http://www.w3.org/2000/svg">
<path d="M5.74382 18.8036H2.2771V14.0785C2.2771 13.9675 2.3671 13.8776 2.47808 13.8776H5.5428C5.65382 13.8776 5.74378 13.9676 5.74378 14.0785V18.8036H5.74382Z" fill="#FB2B3A"/>
<path d="M5.74376 14.0787V18.5925H4.76177V14.0787C4.76177 13.9673 4.67173 13.8777 4.56079 13.8777H5.54278C5.65372 13.8777 5.74376 13.9673 5.74376 14.0787V14.0787Z" fill="#E41F2D"/>
<path d="M11.7333 18.8036H8.2666V10.7812C8.2666 10.6702 8.3566 10.5802 8.46758 10.5802H11.5323C11.6433 10.5802 11.7333 10.6702 11.7333 10.7812V18.8036H11.7333Z" fill="#00C27A"/>
<path d="M11.7333 10.7813V18.5925H10.7513V10.7813C10.7513 10.6699 10.6612 10.5803 10.5503 10.5803H11.5323C11.6432 10.5803 11.7333 10.67 11.7333 10.7813Z" fill="#08B865"/>
<path d="M17.7228 18.8037H14.2561V6.96428C14.2561 6.85327 14.3461 6.76331 14.4571 6.76331H17.5218C17.6328 6.76331 17.7228 6.85331 17.7228 6.96428V18.8037H17.7228Z" fill="#8AC9FE"/>
<path d="M17.7228 6.96428V18.5924H16.7408V6.96428C16.7408 6.85292 16.6507 6.76331 16.5398 6.76331H17.5218C17.6327 6.76331 17.7228 6.85292 17.7228 6.96428V6.96428Z" fill="#60B7FF"/>
<path d="M4.4052 7.8771L4.87738 8.83386C4.90836 8.89663 4.96824 8.94015 5.03754 8.95023L6.09336 9.10366C6.45461 9.15616 6.59883 9.60007 6.33742 9.85487L5.57344 10.5996C5.52332 10.6485 5.50043 10.7189 5.51227 10.7879L5.69262 11.8394C5.75434 12.1992 5.37672 12.4736 5.05359 12.3037L4.10922 11.8072C4.04727 11.7746 3.97324 11.7746 3.91125 11.8072L2.96688 12.3037C2.64379 12.4735 2.26617 12.1992 2.32785 11.8394L2.5082 10.7879C2.52004 10.7189 2.49715 10.6485 2.44703 10.5996L1.68305 9.85487C1.42164 9.60007 1.5659 9.15616 1.92711 9.10366L2.98293 8.95023C3.05223 8.94015 3.11211 8.89663 3.14309 8.83386L3.61527 7.8771C3.77688 7.54976 4.24363 7.54976 4.4052 7.8771V7.8771Z" fill="#FE9901"/>
<path d="M5.57372 10.5995C5.52321 10.6485 5.50091 10.7184 5.51278 10.7875L5.69259 11.8396C5.75427 12.1992 5.37681 12.4734 5.0536 12.3032L4.10923 11.8069C4.04755 11.7742 3.97325 11.7742 3.91157 11.8069L2.9672 12.3032C2.64399 12.4734 2.26653 12.1992 2.32821 11.8396L2.36907 11.5996C2.39063 11.5929 2.41216 11.5833 2.43372 11.5721C2.57259 11.499 2.71149 11.4259 2.8504 11.3528C3.05966 11.2426 3.26911 11.1301 3.4911 11.0473C3.67255 10.9795 3.86677 10.953 4.0595 10.9457C4.26759 10.9379 4.57509 11.0819 4.70395 10.8425C4.7436 10.7689 4.73122 10.666 4.74528 10.586C4.81063 10.2141 5.02372 9.88312 5.29724 9.62159C5.4688 9.45812 5.63431 9.28851 5.80399 9.12312C5.82181 9.1053 5.83817 9.08745 5.85153 9.06812L6.09376 9.10378C6.45485 9.15581 6.59899 9.60011 6.33747 9.85495L5.57372 10.5995Z" fill="#FB8801"/>
<path d="M10.3951 4.20889L10.8673 5.16564C10.8983 5.22842 10.9582 5.27193 11.0275 5.28201L12.0833 5.43545C12.4446 5.48795 12.5888 5.93186 12.3274 6.18666L11.5634 6.93139C11.5133 6.98025 11.4904 7.05064 11.5023 7.11967L11.6826 8.17123C11.7443 8.531 11.3667 8.80537 11.0436 8.63549L10.0992 8.139C10.0373 8.10643 9.96323 8.10643 9.90124 8.139L8.95687 8.63549C8.63378 8.80533 8.25616 8.531 8.31784 8.17123L8.49819 7.11967C8.51003 7.05068 8.48714 6.98025 8.43702 6.93139L7.67304 6.18666C7.41163 5.93186 7.55589 5.48795 7.9171 5.43545L8.97292 5.28201C9.04222 5.27193 9.1021 5.22842 9.13308 5.16564L9.60526 4.20889C9.76683 3.88154 10.2336 3.88154 10.3951 4.20889V4.20889Z" fill="#FE9901"/>
<path d="M11.5632 6.93131C11.5127 6.98033 11.4904 7.05018 11.5023 7.11928L11.6821 8.17139C11.7438 8.531 11.3663 8.80518 11.0431 8.63502L10.0987 8.13869C10.037 8.106 9.96275 8.106 9.90107 8.13869L8.9567 8.63502C8.6335 8.80518 8.25603 8.531 8.31771 8.17139L8.35857 7.93139C8.38014 7.92471 8.40166 7.91506 8.42322 7.90389C8.56209 7.8308 8.701 7.75768 8.8399 7.68455C9.04916 7.57439 9.25861 7.46189 9.4806 7.37904C9.66205 7.31131 9.85627 7.28479 10.049 7.27752C10.2571 7.26971 10.5646 7.41369 10.6935 7.17432C10.7331 7.10068 10.7207 6.99775 10.7348 6.91775C10.8001 6.54584 11.0132 6.2149 11.2867 5.95338C11.4583 5.7899 11.6238 5.62029 11.7935 5.4549C11.8113 5.43709 11.8277 5.41924 11.841 5.3999L12.0833 5.43557C12.4444 5.4876 12.5885 5.93189 12.327 6.18674L11.5632 6.93131Z" fill="#FB8801"/>
<path d="M16.3845 0.289585L16.8567 1.24634C16.8876 1.30912 16.9475 1.35263 17.0168 1.36271L18.0726 1.51615C18.4339 1.56865 18.5781 2.01255 18.3167 2.26736L17.5527 3.01201C17.5026 3.06087 17.4797 3.13126 17.4915 3.20029L17.6719 4.25185C17.7336 4.61162 17.356 4.88599 17.0328 4.71611L16.0885 4.21962C16.0265 4.18705 15.9525 4.18705 15.8905 4.21962L14.9461 4.71611C14.623 4.88595 14.2454 4.61162 14.3071 4.25185L14.4875 3.20029C14.4993 3.1313 14.4764 3.06087 14.4263 3.01201L13.6623 2.26728C13.4009 2.01248 13.5451 1.56857 13.9064 1.51607L14.9622 1.36263C15.0315 1.35255 15.0914 1.30904 15.1223 1.24626L15.5945 0.289507C15.7562 -0.0377588 16.2229 -0.0377588 16.3845 0.289585V0.289585Z" fill="#FE9901"/>
<path d="M17.553 3.01212C17.5025 3.06114 17.4802 3.13099 17.492 3.20009L17.6718 4.2522C17.7335 4.61181 17.3561 4.88599 17.0329 4.71583L16.0885 4.2195C16.0268 4.18681 15.9525 4.18681 15.8908 4.2195L14.9464 4.71583C14.6232 4.88599 14.2458 4.61181 14.3075 4.2522L14.3483 4.0122C14.3699 4.00552 14.3914 3.99587 14.413 3.9847C14.5518 3.91161 14.6907 3.83849 14.8296 3.76536C15.0389 3.6552 15.2484 3.5427 15.4704 3.45985C15.6518 3.39212 15.846 3.3656 16.0387 3.35833C16.2468 3.35052 16.5543 3.4945 16.6832 3.25513C16.7229 3.18149 16.7105 3.07856 16.7245 2.99856C16.7899 2.62665 17.003 2.29571 17.2765 2.03419C17.448 1.87071 17.6136 1.7011 17.7832 1.53571C17.8011 1.5179 17.8174 1.50005 17.8308 1.48071L18.073 1.51638C18.4341 1.56841 18.5782 2.01271 18.3167 2.26755L17.553 3.01212Z" fill="#FB8801"/>
<path d="M19.799 19.9558H0.200977C0.0899609 19.9558 0 19.8658 0 19.7549V18.7935C0 18.6825 0.09 18.5925 0.200977 18.5925H19.799C19.91 18.5925 20 18.6825 20 18.7935V19.7549C20 19.8659 19.91 19.9558 19.799 19.9558Z" fill="#5A5A5A"/>
</svg>
