<svg width="40" height="40" viewBox="0 0 40 40" fill="none" xmlns="http://www.w3.org/2000/svg">
<path d="M11.4875 37.6071H4.55408V28.157C4.55408 27.935 4.73408 27.7551 4.95603 27.7551H11.0855C11.3075 27.7551 11.4874 27.9351 11.4874 28.157V37.6071H11.4875Z" fill="#FB2B3A"/>
<path d="M11.4873 28.1573V37.1848H9.52335V28.1573C9.52335 27.9345 9.34327 27.7553 9.1214 27.7553H11.0854C11.3073 27.7553 11.4873 27.9346 11.4873 28.1573Z" fill="#E41F2D"/>
<path d="M23.4667 37.607H16.5333V21.5622C16.5333 21.3401 16.7133 21.1602 16.9352 21.1602H23.0647C23.2867 21.1602 23.4666 21.3402 23.4666 21.5622V37.607H23.4667Z" fill="#00C27A"/>
<path d="M23.4665 21.5627V37.185H21.5026V21.5627C21.5026 21.3399 21.3225 21.1607 21.1006 21.1607H23.0646C23.2865 21.1607 23.4665 21.34 23.4665 21.5627Z" fill="#08B865"/>
<path d="M35.446 37.6071H28.5125V13.9284C28.5125 13.7064 28.6925 13.5264 28.9145 13.5264H35.0439C35.266 13.5264 35.4459 13.7064 35.4459 13.9284V37.6071H35.446Z" fill="#8AC9FE"/>
<path d="M35.4458 13.9287V37.185H33.4818V13.9287C33.4818 13.706 33.3018 13.5267 33.0799 13.5267H35.0439C35.2658 13.5267 35.4458 13.706 35.4458 13.9287Z" fill="#60B7FF"/>
<path d="M8.81057 15.7541L9.75495 17.6676C9.8169 17.7931 9.93667 17.8802 10.0753 17.9003L12.1869 18.2072C12.9094 18.3122 13.1978 19.2 12.675 19.7096L11.1471 21.1991C11.0468 21.2968 11.001 21.4376 11.0247 21.5756L11.3854 23.6788C11.5089 24.3983 10.7536 24.9471 10.1074 24.6073L8.21862 23.6143C8.09472 23.5492 7.94667 23.5492 7.82268 23.6143L5.93393 24.6073C5.28776 24.947 4.53253 24.3983 4.65589 23.6788L5.01659 21.5756C5.04026 21.4377 4.99448 21.2968 4.89425 21.1991L3.36628 19.7096C2.84347 19.2 3.13198 18.3122 3.8544 18.2072L5.96604 17.9003C6.10464 17.8802 6.2244 17.7931 6.28636 17.6676L7.23073 15.7541C7.55393 15.0994 8.48745 15.0994 8.81057 15.7541Z" fill="#FE9901"/>
<path d="M11.1473 21.199C11.0463 21.297 11.0016 21.4367 11.0254 21.5749L11.385 23.6791C11.5084 24.3984 10.7534 24.9467 10.107 24.6064L8.21829 23.6137C8.09493 23.5484 7.94634 23.5484 7.82298 23.6137L5.93423 24.6064C5.28782 24.9467 4.5329 24.3984 4.65626 23.6791L4.73798 23.1991C4.7811 23.1858 4.82415 23.1665 4.86727 23.1441C5.14501 22.998 5.42282 22.8517 5.70063 22.7055C6.11915 22.4852 6.53805 22.2602 6.98204 22.0944C7.34493 21.959 7.73337 21.9059 8.11884 21.8914C8.53501 21.8758 9.15001 22.1637 9.40774 21.685C9.48704 21.5377 9.46227 21.3319 9.4904 21.1719C9.6211 20.428 10.0473 19.7662 10.5943 19.2431C10.9374 18.9162 11.2684 18.577 11.6078 18.2462C11.6434 18.2105 11.6762 18.1748 11.7029 18.1362L12.1874 18.2075C12.9095 18.3116 13.1978 19.2002 12.6748 19.7098L11.1473 21.199Z" fill="#FB8801"/>
<path d="M20.7898 8.41783L21.7341 10.3314C21.7961 10.4569 21.9159 10.5439 22.0544 10.5641L24.1661 10.871C24.8886 10.976 25.177 11.8638 24.6543 12.3734L23.1263 13.8628C23.0261 13.9606 22.9803 14.1014 23.004 14.2394L23.3647 16.3425C23.4881 17.0621 22.7329 17.6108 22.0866 17.271L20.1979 16.2781C20.074 16.2129 19.9259 16.2129 19.8019 16.2781L17.9132 17.271C17.267 17.6107 16.5118 17.0621 16.6351 16.3425L16.9959 14.2394C17.0195 14.1014 16.9737 13.9606 16.8735 13.8628L15.3455 12.3734C14.8227 11.8638 15.1112 10.976 15.8337 10.871L17.9453 10.5641C18.0839 10.5439 18.2037 10.4569 18.2656 10.3314L19.21 8.41783C19.5331 7.76315 20.4667 7.76315 20.7898 8.41783Z" fill="#FE9901"/>
<path d="M23.1265 13.8627C23.0255 13.9608 22.9809 14.1005 23.0046 14.2387L23.3642 16.3429C23.4876 17.0621 22.7327 17.6105 22.0863 17.2702L20.1975 16.2775C20.0741 16.2121 19.9256 16.2121 19.8022 16.2775L17.9134 17.2702C17.267 17.6105 16.5121 17.0621 16.6355 16.3429L16.7172 15.8629C16.7603 15.8495 16.8034 15.8302 16.8465 15.8079C17.1242 15.6617 17.402 15.5155 17.6798 15.3692C18.0984 15.1489 18.5173 14.9239 18.9613 14.7582C19.3241 14.6227 19.7126 14.5697 20.0981 14.5552C20.5142 14.5395 21.1292 14.8275 21.387 14.3488C21.4663 14.2015 21.4415 13.9956 21.4696 13.8356C21.6003 13.0918 22.0265 12.4299 22.5735 11.9069C22.9166 11.5799 23.2477 11.2407 23.587 10.9099C23.6227 10.8743 23.6554 10.8386 23.6821 10.7999L24.1666 10.8713C24.8888 10.9753 25.177 11.8639 24.654 12.3736L23.1265 13.8627Z" fill="#FB8801"/>
<path d="M32.769 0.579292L33.7134 2.49281C33.7753 2.61835 33.8951 2.70539 34.0337 2.72554L36.1453 3.03242C36.8678 3.13742 37.1563 4.02523 36.6335 4.53484L35.1054 6.02414C35.0052 6.12187 34.9594 6.26265 34.9831 6.4007L35.3438 8.50382C35.4672 9.22335 34.712 9.7721 34.0657 9.43234L32.177 8.43937C32.0531 8.37421 31.905 8.37421 31.781 8.43937L29.8923 9.43234C29.2461 9.77203 28.4909 9.22335 28.6142 8.50382L28.9749 6.4007C28.9986 6.26273 28.9528 6.12187 28.8526 6.02414L27.3246 4.53468C26.8018 4.02507 27.0903 3.13726 27.8128 3.03226L29.9244 2.72539C30.063 2.70523 30.1828 2.6182 30.2447 2.49265L31.1891 0.579136C31.5124 -0.0753955 32.4459 -0.0753955 32.769 0.579292Z" fill="#FE9901"/>
<path d="M35.1058 6.02424C35.0048 6.12229 34.9602 6.26197 34.9839 6.40018L35.3435 8.50439C35.4669 9.22361 34.712 9.77197 34.0655 9.43166L32.1768 8.439C32.0534 8.37361 31.9048 8.37361 31.7815 8.439L29.8927 9.43166C29.2463 9.77197 28.4914 9.22361 28.6148 8.50439L28.6965 8.02439C28.7396 8.01103 28.7827 7.99174 28.8258 7.96939C29.1035 7.82322 29.3813 7.67697 29.6591 7.53072C30.0777 7.31041 30.4966 7.08541 30.9405 6.91971C31.3034 6.78424 31.6919 6.73119 32.0773 6.71666C32.4935 6.70104 33.1085 6.989 33.3663 6.51025C33.4456 6.36299 33.4208 6.15713 33.4489 5.99713C33.5796 5.2533 34.0058 4.59143 34.5528 4.06838C34.8959 3.74143 35.227 3.40221 35.5663 3.07143C35.602 3.0358 35.6347 3.0001 35.6614 2.96143L36.1459 3.03275C36.868 3.13682 37.1563 4.02541 36.6333 4.5351L35.1058 6.02424Z" fill="#FB8801"/>
<path d="M39.598 39.9117H0.401953C0.179922 39.9117 0 39.7317 0 39.5097V37.587C0 37.365 0.18 37.1851 0.401953 37.1851H39.598C39.82 37.1851 39.9999 37.3651 39.9999 37.587V39.5097C40 39.7318 39.82 39.9117 39.598 39.9117Z" fill="#5A5A5A"/>
</svg>
