<svg width="70" height="70" viewBox="0 0 70 70" fill="none" xmlns="http://www.w3.org/2000/svg">
<circle cx="35" cy="35" r="35" fill="#BA99DF"/>
<path d="M46.8744 39.6256C44.9683 37.7196 42.6996 36.3086 40.2243 35.4544C42.8755 33.6285 44.6172 30.5726 44.6172 27.1172C44.6172 21.5386 40.0786 17 34.5 17C28.9214 17 24.3828 21.5386 24.3828 27.1172C24.3828 30.5726 26.1245 33.6285 28.7757 35.4544C26.3004 36.3086 24.0317 37.7196 22.1257 39.6256C18.8203 42.931 17 47.3256 17 52H19.7344C19.7344 43.8582 26.3582 37.2344 34.5 37.2344C42.6418 37.2344 49.2656 43.8582 49.2656 52H52C52 47.3256 50.1797 42.931 46.8744 39.6256ZM34.5 34.5C30.4291 34.5 27.1172 31.1881 27.1172 27.1172C27.1172 23.0463 30.4291 19.7344 34.5 19.7344C38.5709 19.7344 41.8828 23.0463 41.8828 27.1172C41.8828 31.1881 38.5709 34.5 34.5 34.5Z" fill="white"/>
</svg>
